# xmcd CD database file generated by MAGIX_Freedb v0.9beta0
# 
# Track frame offsets:
#      150
#      16594
#      33373
#      50169
#      65576
#      79296
#      93360
#      108177
#      123866
#      139445
#      153716
#      172141
#      189082
#      206236
#      224201
#      240596
#      258657
#      272655
#      289042
#      304754
# 
# Disc length: 4334 seconds
# 
# Revision: 1 
# Processed by: cddbd v1.4PL0 Copyright (c) Steve Scherf et al.
# Submitted via: MAGIX_Freedb v0.9beta0
# 
DISCID=2f10ec14
DTITLE=Various Artist - Bravo Hits 38 [CD 2)
DYEAR=02
DGENRE=
TTITLE0=Various Artist - To France
TTITLE1=Sunshine
TTITLE2=Rhythm Of The Night
TTITLE3=Kiss Kiss
TTITLE4=I.o.i.o
TTITLE5=I Love Rock'n'roll
TTITLE6=It's Ok!
TTITLE7=Sunny Day
TTITLE8=Give It Up
TTITLE9=Somebody
TTITLE10=Herz Aus Glas
TTITLE11=Ich Hab Dich Zuerst Gesehen
TTITLE12=I Begin To Wonder
TTITLE13=U Know Y
TTITLE14=Want You So Badly
TTITLE15=Loud And Proud
TTITLE16=New York Groove
TTITLE17=This Is My Time
TTITLE18=Wherever You Will Go
TTITLE19=Nur Zu Besuch
EXTD=
EXTT0=
EXTT1=
EXTT2=
EXTT3=
EXTT4=
EXTT5=
EXTT6=
EXTT7=
EXTT8=
EXTT9=
EXTT10=
EXTT11=
EXTT12=
EXTT13=
EXTT14=
EXTT15=
EXTT16=
EXTT17=
EXTT18=
EXTT19=
PLAYORDER=
